# xmcd
#
# Track frame offsets: 
#        150
#        8702
#        35272
#        48487
#        68762
#        99345
#        124347
#        146552
#        154967
#        174332
#
# Disc length: 2584 seconds
#
# Revision: 1
# Processed by: cddbd v1.5.2PL0 Copyright (c) Steve Scherf et al.
# Submitted via: ExactAudioCopy v0.99pb4
#
DISCID=7e0a160a
DTITLE=Wildwest - Abenteuer - Spuk in der Radiostation (16)
DYEAR=2001
DGENRE=Speech
TTITLE0=Träume sind Schäume
TTITLE1=Hart - heftig - herzlich
TTITLE2=Diebstahl
TTITLE3=Wirbel um Mrs Whirlpool
TTITLE4=Wache am Tatort
TTITLE5=Spuk in der Radiostation
TTITLE6=Auf wilder Jagd
TTITLE7=Die Antwort des Pocketmonsters
TTITLE8=Raffinierte Abwehranlagen
TTITLE9=Alles klar - oder
EXTD=
EXTT0=
EXTT1=
EXTT2=
EXTT3=
EXTT4=
EXTT5=
EXTT6=
EXTT7=
EXTT8=
EXTT9=
PLAYORDER=
